<svg width="24" height="24" viewBox="0 0 24 24" fill="none" xmlns="http://www.w3.org/2000/svg">
<path d="M12 3C9.61305 3 7.32387 3.94821 5.63604 5.63604C3.94821 7.32387 3 9.61305 3 12C3 14.3869 3.94821 16.6761 5.63604 18.364C7.32387 20.0518 9.61305 21 12 21C14.3869 21 16.6761 20.0518 18.364 18.364C20.0518 16.6761 21 14.3869 21 12C21 9.61305 20.0518 7.32387 18.364 5.63604C16.6761 3.94821 14.3869 3 12 3ZM12 19.7143V4.28571C13.0131 4.28571 14.0162 4.48525 14.9521 4.87293C15.8881 5.26061 16.7385 5.82884 17.4548 6.54518C18.1712 7.26151 18.7394 8.11193 19.1271 9.04787C19.5147 9.98381 19.7143 10.9869 19.7143 12C19.7143 13.0131 19.5147 14.0162 19.1271 14.9521C18.7394 15.8881 18.1712 16.7385 17.4548 17.4548C16.7385 18.1712 15.8881 18.7394 14.9521 19.1271C14.0162 19.5147 13.0131 19.7143 12 19.7143Z" fill="#FCFCFC"/>
</svg>
