<svg width="32" height="33" viewBox="0 0 32 33" fill="none" xmlns="http://www.w3.org/2000/svg">
<path d="M16 4C12.8174 4 9.76515 5.26428 7.51472 7.51472C5.26428 9.76515 4 12.8174 4 16C4 19.1826 5.26428 22.2348 7.51472 24.4853C9.76515 26.7357 12.8174 28 16 28C19.1826 28 22.2348 26.7357 24.4853 24.4853C26.7357 22.2348 28 19.1826 28 16C28 12.8174 26.7357 9.76515 24.4853 7.51472C22.2348 5.26428 19.1826 4 16 4ZM16 26.2857V5.71429C17.3507 5.71429 18.6883 5.98033 19.9362 6.49724C21.1841 7.01414 22.318 7.77178 23.2731 8.7269C24.2282 9.68202 24.9859 10.8159 25.5028 12.0638C26.0197 13.3117 26.2857 14.6493 26.2857 16C26.2857 17.3507 26.0197 18.6883 25.5028 19.9362C24.9859 21.1841 24.2282 22.318 23.2731 23.2731C22.318 24.2282 21.1841 24.9859 19.9362 25.5028C18.6883 26.0197 17.3507 26.2857 16 26.2857Z" fill="#1C1C1C"/>
</svg>
