<svg width="40" height="40" viewBox="0 0 40 40" fill="none" xmlns="http://www.w3.org/2000/svg">
<path d="M21.6683 33.2301C28.2455 32.41 33.335 26.7993 33.335 20C33.335 12.6362 27.3655 6.66665 20.0017 6.66665C12.6378 6.66665 6.66829 12.6362 6.66829 20C6.66829 26.7993 11.7578 32.41 18.335 33.2301V23.3333H15.0016V20H18.335V17.243C18.335 15.0142 18.567 14.206 19.0028 13.3912C19.4385 12.5764 20.078 11.9369 20.8928 11.5011C21.5307 11.16 22.3218 10.9542 23.7045 10.8659C24.2532 10.8308 24.9635 10.8755 25.835 11V14.1666H25.0017C23.4728 14.1666 22.842 14.2388 22.4648 14.4405C22.231 14.5656 22.0673 14.7293 21.9422 14.9632C21.7405 15.3403 21.6683 15.7142 21.6683 17.243V20H25.835L25.0017 23.3333H21.6683V33.2301ZM20.0017 36.6666C10.7969 36.6666 3.33496 29.2046 3.33496 20C3.33496 10.7952 10.7969 3.33331 20.0017 3.33331C29.2063 3.33331 36.6683 10.7952 36.6683 20C36.6683 29.2046 29.2063 36.6666 20.0017 36.6666Z" fill="black"/>
</svg>
