<svg width="39" height="40" viewBox="0 0 39 40" fill="none" xmlns="http://www.w3.org/2000/svg">
<path d="M19.502 15.125C16.8087 15.125 14.627 17.3075 14.627 20C14.627 22.6931 16.8095 24.875 19.502 24.875C22.1951 24.875 24.377 22.6925 24.377 20C24.377 17.3069 22.1945 15.125 19.502 15.125ZM19.502 11.875C23.9876 11.875 27.627 15.5103 27.627 20C27.627 24.4858 23.9917 28.125 19.502 28.125C15.0162 28.125 11.377 24.4897 11.377 20C11.377 15.5142 15.0122 11.875 19.502 11.875ZM30.0645 11.4674C30.0645 12.5888 29.1532 13.4987 28.0332 13.4987C26.9118 13.4987 26.002 12.5874 26.002 11.4674C26.002 10.3473 26.9131 9.4375 28.0332 9.4375C29.1517 9.43609 30.0645 10.3473 30.0645 11.4674ZM19.502 7C15.4809 7 14.8255 7.01064 12.9553 7.09392C11.6811 7.15374 10.827 7.32511 10.0334 7.63321C9.32812 7.90673 8.81938 8.23334 8.27733 8.77539C7.7332 9.31952 7.40718 9.8269 7.13476 10.5325C6.82595 11.3279 6.65462 12.1807 6.59588 13.4531C6.51178 15.2472 6.50195 15.8742 6.50195 20C6.50195 24.0211 6.5126 24.6764 6.59586 26.5465C6.65571 27.8202 6.82731 28.6756 7.13466 29.4673C7.4089 30.1735 7.73617 30.6834 8.27561 31.2229C8.82188 31.7684 9.33077 32.0955 10.0296 32.3653C10.8329 32.6758 11.6865 32.8474 12.9551 32.9061C14.7492 32.9901 15.3762 33 19.502 33C23.5231 33 24.1784 32.9893 26.0485 32.9061C27.3194 32.8464 28.1754 32.6743 28.9692 32.3672C29.6735 32.0937 30.1851 31.7653 30.7249 31.2263C31.2712 30.6792 31.5977 30.1715 31.8677 29.471C32.1775 28.6707 32.3494 27.8159 32.4081 26.547C32.4921 24.7528 32.502 24.1257 32.502 20C32.502 15.979 32.4913 15.3236 32.4081 13.4535C32.3483 12.1822 32.1762 11.3249 31.8687 10.5314C31.5959 9.82812 31.2681 9.31782 30.7265 8.77539C30.1815 8.23037 29.6755 7.90501 28.9694 7.63281C28.1746 7.32425 27.3205 7.15268 26.0488 7.09394C24.2548 7.00983 23.6277 7 19.502 7ZM19.502 3.75C23.9165 3.75 24.4677 3.76625 26.201 3.8475C27.9302 3.9274 29.1098 4.20094 30.1457 4.60313C31.2168 5.01615 32.1214 5.57406 33.0246 6.47729C33.9265 7.38053 34.4845 8.28781 34.8989 9.35625C35.2996 10.3908 35.5732 11.5717 35.6545 13.3009C35.7317 15.0343 35.752 15.5854 35.752 20C35.752 24.4146 35.7357 24.9657 35.6545 26.6991C35.5745 28.4284 35.2996 29.6078 34.8989 30.6437C34.4858 31.7149 33.9265 32.6194 33.0246 33.5228C32.1214 34.4246 31.2127 34.9825 30.1457 35.3969C29.1098 35.7978 27.9302 36.0713 26.201 36.1525C24.4677 36.2297 23.9165 36.25 19.502 36.25C15.0874 36.25 14.5362 36.2337 12.8029 36.1525C11.0736 36.0726 9.89549 35.7978 8.8582 35.3969C7.7884 34.9838 6.88246 34.4246 5.97924 33.5228C5.07602 32.6194 4.51945 31.7109 4.10508 30.6437C3.70289 29.6078 3.4307 28.4284 3.34945 26.6991C3.27227 24.9657 3.25195 24.4146 3.25195 20C3.25195 15.5854 3.2682 15.0343 3.34945 13.3009C3.42934 11.5703 3.70289 10.3922 4.10508 9.35625C4.51809 8.28646 5.07602 7.38053 5.97924 6.47729C6.88246 5.57406 7.78977 5.0175 8.8582 4.60313C9.89414 4.20094 11.0723 3.92875 12.8029 3.8475C14.5362 3.77031 15.0874 3.75 19.502 3.75Z" fill="black"/>
</svg>
