<svg width="32" height="33" viewBox="0 0 32 33" fill="none" xmlns="http://www.w3.org/2000/svg">
<path d="M16 28.5C14.3485 28.5 12.7929 28.1844 11.3333 27.5533C9.87379 26.9222 8.60267 26.0644 7.52001 24.98C6.43734 23.8956 5.57956 22.6244 4.94667 21.1667C4.31379 19.7089 3.99823 18.1533 4.00001 16.5C4.00001 14.844 4.31556 13.2871 4.94667 11.8293C5.57779 10.3716 6.43556 9.10178 7.52001 8.02C8.60445 6.93822 9.87556 6.08089 11.3333 5.448C12.7911 4.81511 14.3467 4.49911 16 4.5C17.656 4.5 19.2129 4.81556 20.6707 5.44667C22.1285 6.07778 23.3987 6.93556 24.4813 8.02C25.564 9.10445 26.4209 10.3742 27.052 11.8293C27.6831 13.2844 27.9991 14.8413 28 16.5C28 18.1516 27.6845 19.7071 27.0533 21.1667C26.4222 22.6262 25.5645 23.8973 24.48 24.98C23.3956 26.0627 22.1258 26.9204 20.6707 27.5533C19.2156 28.1862 17.6587 28.5018 16 28.5ZM16 27.1773C16.7822 26.172 17.4276 25.1849 17.936 24.216C18.4445 23.2471 18.8573 22.1627 19.1747 20.9627H12.8253C13.1773 22.2302 13.5987 23.3484 14.0893 24.3173C14.58 25.2862 15.2169 26.2396 16 27.1773ZM14.3027 26.9773C13.6805 26.244 13.1125 25.3373 12.5987 24.2573C12.0849 23.1782 11.7027 22.0796 11.452 20.9613H6.33734C7.10178 22.62 8.1849 23.98 9.58667 25.0413C10.9885 26.1027 12.56 26.748 14.3013 26.9773M17.696 26.9773C19.4365 26.748 21.008 26.1027 22.4107 25.0413C23.8133 23.98 24.8965 22.62 25.66 20.9613H20.548C20.2102 22.0964 19.7849 23.204 19.272 24.284C18.7582 25.3631 18.2329 26.2609 17.696 26.9773ZM5.79334 19.628H11.1733C11.072 19.0813 11.0009 18.5484 10.96 18.0293C10.9173 17.5102 10.896 17.0004 10.896 16.5C10.896 15.9996 10.9169 15.4898 10.9587 14.9707C11.0005 14.4516 11.0716 13.9182 11.172 13.3707H5.79601C5.65112 13.8329 5.53779 14.3364 5.45601 14.8813C5.37423 15.4262 5.33334 15.9658 5.33334 16.5C5.33334 17.0342 5.37379 17.5738 5.45467 18.1187C5.53556 18.6636 5.6489 19.1667 5.79467 19.628M12.508 19.628H19.492C19.5933 19.0813 19.6645 18.5569 19.7053 18.0547C19.7462 17.5524 19.768 17.0342 19.7707 16.5C19.7733 15.9658 19.7525 15.4476 19.708 14.9453C19.6636 14.4431 19.5925 13.9187 19.4947 13.372H12.5067C12.4062 13.9187 12.3351 14.4431 12.2933 14.9453C12.2516 15.4476 12.2307 15.9658 12.2307 16.5C12.2307 17.0342 12.2516 17.5524 12.2933 18.0547C12.3351 18.5569 12.4076 19.0813 12.508 19.628ZM20.8267 19.628H26.2053C26.3502 19.1658 26.4636 18.6627 26.5453 18.1187C26.6271 17.5747 26.6676 17.0351 26.6667 16.5C26.6658 15.9649 26.6253 15.4253 26.5453 14.8813C26.4653 14.3373 26.352 13.8342 26.2053 13.372H20.8253C20.9267 13.9187 20.9978 14.4516 21.0387 14.9707C21.0813 15.4898 21.1027 15.9996 21.1027 16.5C21.1027 17.0004 21.0818 17.5102 21.04 18.0293C20.9982 18.5484 20.9271 19.0818 20.8267 19.6293M20.5493 12.0387H25.6613C24.88 10.3462 23.8098 8.98622 22.4507 7.95867C21.0907 6.93111 19.5062 6.27778 17.6973 5.99867C18.3196 6.81645 18.8791 7.75245 19.376 8.80667C19.8729 9.86089 20.264 10.9382 20.5493 12.0387ZM12.8253 12.0387H19.1747C18.8227 10.7871 18.3885 9.65556 17.872 8.644C17.3556 7.63245 16.7316 6.692 16 5.82267C15.2685 6.69111 14.6445 7.63156 14.128 8.644C13.6125 9.65556 13.1782 10.7871 12.8253 12.0387ZM6.33867 12.0387H11.4507C11.7369 10.9373 12.128 9.86 12.624 8.80667C13.12 7.75333 13.6796 6.81689 14.3027 5.99734C12.4769 6.27734 10.8885 6.93511 9.53734 7.97067C8.18623 9.00622 7.11956 10.3618 6.33734 12.0373" fill="#1C1C1C"/>
</svg>
