<svg width="24" height="24" viewBox="0 0 24 24" fill="none" xmlns="http://www.w3.org/2000/svg">
<path d="M12 21C10.7613 21 9.59467 20.7633 8.50001 20.29C7.40534 19.8167 6.45201 19.1733 5.64001 18.36C4.82801 17.5467 4.18467 16.5933 3.71001 15.5C3.23534 14.4067 2.99867 13.24 3.00001 12C3.00001 10.758 3.23667 9.59033 3.71001 8.497C4.18334 7.40367 4.82667 6.45133 5.64001 5.64C6.45334 4.82867 7.40667 4.18567 8.50001 3.711C9.59334 3.23633 10.76 2.99933 12 3C13.242 3 14.4097 3.23667 15.503 3.71C16.5963 4.18333 17.549 4.82667 18.361 5.64C19.173 6.45333 19.8157 7.40567 20.289 8.497C20.7623 9.58833 20.9993 10.756 21 12C21 13.2387 20.7633 14.4053 20.29 15.5C19.8167 16.5947 19.1733 17.548 18.36 18.36C17.5467 19.172 16.5943 19.8153 15.503 20.29C14.4117 20.7647 13.244 21.0013 12 21ZM12 20.008C12.5867 19.254 13.0707 18.5137 13.452 17.787C13.8333 17.0603 14.143 16.247 14.381 15.347H9.61901C9.88301 16.2977 10.199 17.1363 10.567 17.863C10.935 18.5897 11.4127 19.3047 12 20.008ZM10.727 19.858C10.2603 19.308 9.83434 18.628 9.44901 17.818C9.06367 17.0087 8.77701 16.1847 8.58901 15.346H4.75301C5.32634 16.59 6.13867 17.61 7.19001 18.406C8.24134 19.202 9.42001 19.686 10.726 19.858M13.272 19.858C14.5773 19.686 15.756 19.202 16.808 18.406C17.86 17.61 18.6723 16.59 19.245 15.346H15.411C15.1577 16.1973 14.8387 17.028 14.454 17.838C14.0687 18.6473 13.6747 19.3207 13.272 19.858ZM4.34501 14.346H8.38001C8.30401 13.936 8.25067 13.5363 8.22001 13.147C8.18801 12.7577 8.17201 12.3753 8.17201 12C8.17201 11.6247 8.18767 11.2423 8.21901 10.853C8.25034 10.4637 8.30367 10.0637 8.37901 9.653H4.34701C4.23834 9.99967 4.15334 10.3773 4.09201 10.786C4.03067 11.1947 4.00001 11.5993 4.00001 12C4.00001 12.4007 4.03034 12.8053 4.09101 13.214C4.15167 13.6227 4.23667 14 4.34601 14.346M9.38101 14.346H14.619C14.695 13.936 14.7483 13.5427 14.779 13.166C14.8097 12.7893 14.826 12.4007 14.828 12C14.83 11.5993 14.8143 11.2107 14.781 10.834C14.7477 10.4573 14.6943 10.064 14.621 9.654H9.38001C9.30467 10.064 9.25134 10.4573 9.22001 10.834C9.18867 11.2107 9.17301 11.5993 9.17301 12C9.17301 12.4007 9.18867 12.7893 9.22001 13.166C9.25134 13.5427 9.30567 13.936 9.38101 14.346ZM15.62 14.346H19.654C19.7627 13.9993 19.8477 13.622 19.909 13.214C19.9703 12.806 20.0007 12.4013 20 12C19.9993 11.5987 19.969 11.194 19.909 10.786C19.849 10.378 19.764 10.0007 19.654 9.654H15.619C15.695 10.064 15.7483 10.4637 15.779 10.853C15.811 11.2423 15.827 11.6247 15.827 12C15.827 12.3753 15.8113 12.7577 15.78 13.147C15.7487 13.5363 15.6953 13.9363 15.62 14.347M15.412 8.654H19.246C18.66 7.38467 17.8573 6.36467 16.838 5.594C15.818 4.82333 14.6297 4.33333 13.273 4.124C13.7397 4.73733 14.1593 5.43933 14.532 6.23C14.9047 7.02067 15.198 7.82867 15.412 8.654ZM9.61901 8.654H14.381C14.117 7.71533 13.7913 6.86667 13.404 6.108C13.0167 5.34933 12.5487 4.644 12 3.992C11.4513 4.64333 10.9833 5.34867 10.596 6.108C10.2093 6.86667 9.88367 7.71533 9.61901 8.654ZM4.75401 8.654H8.58801C8.80267 7.828 9.09601 7.02 9.46801 6.23C9.84001 5.44 10.2597 4.73767 10.727 4.123C9.35767 4.333 8.16634 4.82633 7.15301 5.603C6.13967 6.37967 5.33967 7.39633 4.75301 8.653" fill="#FCFCFC"/>
</svg>
