<svg width="40" height="40" viewBox="0 0 40 40" fill="none" xmlns="http://www.w3.org/2000/svg">
<g clip-path="url(#clip0_160_307)">
<path d="M12.182 10C10.5789 9.99979 9.0399 10.6011 7.89688 11.6742C6.75385 12.7474 6.09839 14.2064 6.07183 15.7367C5.91471 17.1783 5.9374 19.305 6.95868 21.76C8.00265 24.27 10.0382 27.0067 13.7532 29.6667C13.9366 29.798 14.1454 29.8935 14.3674 29.9479C14.5895 30.0022 14.8206 30.0142 15.0476 29.9833C15.506 29.9207 15.9195 29.687 16.1973 29.3333C16.4751 28.9797 16.5944 28.5352 16.5289 28.0976C16.4635 27.66 16.2186 27.2652 15.8482 27C13.1178 25.045 11.5536 23.145 10.658 21.4833C11.4976 21.6892 12.3736 21.7221 13.2276 21.5799C14.0816 21.4377 14.8941 21.1237 15.6112 20.6587C16.3283 20.1936 16.9335 19.5882 17.3867 18.8827C17.8399 18.1771 18.1306 17.3876 18.2396 16.5666C18.3485 15.7455 18.2732 14.9117 18.0187 14.1206C17.7642 13.3295 17.3362 12.5991 16.7633 11.978C16.1903 11.3569 15.4855 10.8593 14.6957 10.5183C13.9058 10.1772 13.0489 10.0006 12.182 10ZM27.894 10C26.2909 9.99979 24.7519 10.6011 23.6089 11.6742C22.4658 12.7474 21.8104 14.2064 21.7838 15.7367C21.6267 17.1783 21.6494 19.305 22.6707 21.76C23.7129 24.27 25.7502 27.0067 29.4652 29.6667C29.6486 29.798 29.8573 29.8935 30.0794 29.9479C30.3015 30.0022 30.5326 30.0142 30.7596 29.9833C31.2179 29.9207 31.6315 29.687 31.9093 29.3333C32.1871 28.9797 32.3064 28.5352 32.2409 28.0976C32.1754 27.66 31.9306 27.2652 31.5602 27C28.8298 25.045 27.2655 23.145 26.37 21.4833C27.2096 21.6892 28.0855 21.7221 28.9395 21.5799C29.7935 21.4377 30.6061 21.1237 31.3232 20.6587C32.0403 20.1936 32.6455 19.5882 33.0987 18.8827C33.5518 18.1771 33.8426 17.3876 33.9515 16.5666C34.0605 15.7455 33.9852 14.9117 33.7307 14.1206C33.4762 13.3295 33.0482 12.5991 32.4753 11.978C31.9023 11.3569 31.1975 10.8593 30.4076 10.5183C29.6178 10.1772 28.7609 10.0006 27.894 10Z" fill="#C9184A"/>
</g>
<defs>
<clipPath id="clip0_160_307">
<rect width="40" height="40" fill="white" transform="matrix(-1 0 0 1 40 0)"/>
</clipPath>
</defs>
</svg>
