<svg width="40" height="40" viewBox="0 0 40 40" fill="none" xmlns="http://www.w3.org/2000/svg">
<path d="M20.0017 33.3333C27.3655 33.3333 33.335 27.3638 33.335 20C33.335 12.6362 27.3655 6.66665 20.0017 6.66665C12.6378 6.66665 6.66829 12.6362 6.66829 20C6.66829 27.3638 12.6378 33.3333 20.0017 33.3333ZM20.0017 36.6666C10.7969 36.6666 3.33496 29.2046 3.33496 20C3.33496 10.7952 10.7969 3.33331 20.0017 3.33331C29.2063 3.33331 36.6683 10.7952 36.6683 20C36.6683 29.2046 29.2063 36.6666 20.0017 36.6666ZM14.8185 21.9513L10.6551 20.6518C9.75528 20.3758 9.74993 19.7566 10.8566 19.3118L27.0783 13.0459C28.0192 12.6607 28.5542 13.1473 28.2492 14.3607L25.4862 27.3961C25.2938 28.3235 24.7345 28.5443 23.9598 28.1163L19.7083 24.9705L17.7268 26.8828C17.5232 27.0793 17.3575 27.2481 17.0455 27.2905C16.7333 27.3326 16.4761 27.2403 16.2889 26.7228L14.8396 21.938L14.8185 21.9513Z" fill="black"/>
</svg>
